<svg xmlns="http://www.w3.org/2000/svg" xmlns:xlink="http://www.w3.org/1999/xlink" width="40" height="41" viewBox="0 0 40 41">
    <defs>
        <ellipse id="a" cx="19.596" cy="20.044" rx="19.596" ry="20.044"/>
    </defs>
    <g fill="none" fill-rule="evenodd">
        <path d="M.575 0h39.192v40.089H.575z"/>
        <g transform="translate(.575)">
            <use fill="#FFF" xlink:href="#a"/>
            <ellipse cx="19.596" cy="20.044" stroke="#FFF" stroke-width="1.337" rx="18.928" ry="19.376"/>
        </g>
        <g fill="#888">
            <path d="M19.854 10.572c3.162 0 3.536.013 4.785.07 1.154.052 1.78.245 2.198.407.553.215.947.472 1.362.886.414.414.67.809.885 1.361.162.417.355 1.044.408 2.199.057 1.248.069 1.623.069 4.784 0 3.162-.012 3.536-.07 4.784-.052 1.155-.245 1.782-.407 2.199a3.668 3.668 0 0 1-.885 1.361c-.415.415-.81.671-1.362.886-.417.162-1.044.355-2.198.408-1.249.057-1.623.069-4.785.069-3.161 0-3.536-.012-4.784-.07-1.154-.052-1.781-.245-2.199-.407a3.668 3.668 0 0 1-1.361-.886 3.668 3.668 0 0 1-.886-1.361c-.162-.417-.355-1.044-.407-2.198-.057-1.249-.07-1.623-.07-4.785 0-3.161.013-3.536.07-4.784.052-1.155.245-1.782.407-2.199.215-.552.472-.947.886-1.361.414-.414.809-.671 1.361-.886.418-.162 1.045-.355 2.199-.408 1.248-.056 1.623-.069 4.784-.069m0-2.133c-3.215 0-3.618.014-4.881.071-1.26.058-2.121.258-2.874.55A5.804 5.804 0 0 0 10 10.427a5.804 5.804 0 0 0-1.365 2.097c-.293.754-.493 1.614-.55 2.875-.058 1.262-.072 1.666-.072 4.881 0 3.216.014 3.619.071 4.882.058 1.26.258 2.12.55 2.874a5.804 5.804 0 0 0 1.366 2.097 5.804 5.804 0 0 0 2.098 1.366c.753.292 1.613.492 2.874.55 1.263.058 1.666.071 4.881.071 3.216 0 3.619-.013 4.882-.071 1.26-.058 2.12-.258 2.874-.55a5.804 5.804 0 0 0 2.097-1.366 5.804 5.804 0 0 0 1.366-2.097c.292-.753.492-1.614.55-2.874.058-1.263.071-1.666.071-4.882 0-3.215-.013-3.619-.071-4.881-.058-1.26-.258-2.121-.55-2.875a5.804 5.804 0 0 0-1.366-2.097 5.804 5.804 0 0 0-2.097-1.365c-.753-.293-1.614-.493-2.874-.55-1.263-.058-1.666-.072-4.882-.072"/>
            <path d="M20.103 13.446a6.08 6.08 0 1 0 0 12.16 6.08 6.08 0 0 0 0-12.16zm0 10.027a3.947 3.947 0 1 1 0-7.894 3.947 3.947 0 0 1 0 7.894zM26.878 13.866a1.42 1.42 0 1 1-2.841 0 1.42 1.42 0 0 1 2.841 0"/>
        </g>
    </g>
</svg>
