<svg xmlns="http://www.w3.org/2000/svg" xmlns:xlink="http://www.w3.org/1999/xlink" width="40" height="41" viewBox="0 0 40 41">
    <defs>
        <ellipse id="a" cx="19.596" cy="20.044" rx="19.596" ry="20.044"/>
    </defs>
    <g fill="none" fill-rule="evenodd">
        <path d="M.788 0H39.98v40.089H.788z"/>
        <g transform="translate(.788)">
            <use fill="#FFF" xlink:href="#a"/>
            <ellipse cx="19.596" cy="20.044" stroke="#FFF" stroke-width="1.337" rx="18.928" ry="19.376"/>
        </g>
        <path fill="#888" d="M27.978 15.348a4.1 4.1 0 0 0 1.686-2.29 7.348 7.348 0 0 1-2.437 1.005c-.698-.805-1.696-1.307-2.8-1.307-2.12 0-3.837 1.853-3.837 4.14 0 .324.032.64.098.942-3.189-.173-6.016-1.82-7.91-4.326a4.382 4.382 0 0 0-.519 2.083c0 1.435.677 2.703 1.707 3.446a3.64 3.64 0 0 1-1.739-.517v.05c0 2.007 1.322 3.68 3.08 4.06-.323.097-.661.146-1.012.146a3.53 3.53 0 0 1-.722-.074c.488 1.644 1.905 2.843 3.585 2.875-1.314 1.11-2.969 1.772-4.766 1.772-.31 0-.616-.018-.916-.057 1.699 1.174 3.716 1.86 5.883 1.86 7.06 0 10.918-6.309 10.918-11.78 0-.18-.003-.359-.01-.535a8.14 8.14 0 0 0 1.914-2.144 7.23 7.23 0 0 1-2.203.651z"/>
    </g>
</svg>
